<?xml version="1.0" encoding="UTF-8" standalone="no"?>
<!-- Created with Inkscape (http://www.inkscape.org/) -->

<svg
   xmlns:dc="http://purl.org/dc/elements/1.1/"
   xmlns:cc="http://creativecommons.org/ns#"
   xmlns:rdf="http://www.w3.org/1999/02/22-rdf-syntax-ns#"
   xmlns:svg="http://www.w3.org/2000/svg"
   xmlns="http://www.w3.org/2000/svg"
   xmlns:sodipodi="http://sodipodi.sourceforge.net/DTD/sodipodi-0.dtd"
   xmlns:inkscape="http://www.inkscape.org/namespaces/inkscape"
   id="svg3051"
   version="1.1"
   inkscape:version="0.48.2 r9819"
   width="433.75"
   height="368.75"
   xml:space="preserve"
   sodipodi:docname="LIG_coul_Illustrator.pdf"><metadata
     id="metadata3057"><rdf:RDF><cc:Work
         rdf:about=""><dc:format>image/svg+xml</dc:format><dc:type
           rdf:resource="http://purl.org/dc/dcmitype/StillImage" /><dc:title></dc:title></cc:Work></rdf:RDF></metadata><defs
     id="defs3055"><clipPath
       clipPathUnits="userSpaceOnUse"
       id="clipPath3067"><path
         d="M 0,0 347,0 347,295 0,295 0,0 z"
         id="path3069" /></clipPath><clipPath
       clipPathUnits="userSpaceOnUse"
       id="clipPath3081"><path
         d="m 0,294.307 346.613,0 0,-294.247 L 0,0.06 0,294.307 z"
         id="path3083" /></clipPath><clipPath
       clipPathUnits="userSpaceOnUse"
       id="clipPath3087"><path
         d="M 0,0 347,0 347,295 0,295 0,0 z"
         id="path3089" /></clipPath><clipPath
       clipPathUnits="userSpaceOnUse"
       id="clipPath3099"><path
         d="M 0,0 347,0 347,295 0,295 0,0 z"
         id="path3101" /></clipPath></defs><sodipodi:namedview
     pagecolor="#ffffff"
     bordercolor="#666666"
     borderopacity="1"
     objecttolerance="10"
     gridtolerance="10"
     guidetolerance="10"
     inkscape:pageopacity="0"
     inkscape:pageshadow="2"
     inkscape:window-width="1280"
     inkscape:window-height="698"
     id="namedview3053"
     showgrid="false"
     inkscape:zoom="0.64"
     inkscape:cx="-62.8125"
     inkscape:cy="184.375"
     inkscape:window-x="0"
     inkscape:window-y="0"
     inkscape:window-maximized="1"
     inkscape:current-layer="g3059" /><g
     id="g3059"
     inkscape:groupmode="layer"
     inkscape:label="LIG_coul_Illustrator"
     transform="matrix(1.25,0,0,-1.25,0,368.75)"><g
       id="g3061" /><g
       clip-path="url(#clipPath3067)"
       id="g3065"
       style="fill:none;stroke-width:0.28346457000000003;stroke-miterlimit:4;stroke-dasharray:none;stroke:#000000;stroke-opacity:1"><path
         inkscape:connector-curvature="0"
         id="path3071"
         style="fill:none;fill-opacity:1;fill-rule:nonzero;stroke:#000000;stroke-width:0.28346457000000003;stroke-miterlimit:4;stroke-dasharray:none;stroke-opacity:1"
         d="m 171.941,108.265 48.337,11.867 45.089,-14.289 -57.544,-18.623 -35.882,21.045" /><path
         inkscape:connector-curvature="0"
         id="path3073"
         style="fill:none;fill-opacity:1;fill-rule:nonzero;stroke:#000000;stroke-width:0.28346457000000003;stroke-miterlimit:4;stroke-dasharray:none;stroke-opacity:1"
         d="M 0,204.667 89.793,233.674 104.787,145.509 15.966,108.52 0,204.667" /><path
         inkscape:connector-curvature="0"
         id="path3075"
         style="fill:none;fill-opacity:1;fill-rule:nonzero;stroke:#000000;stroke-width:0.28346457000000003;stroke-miterlimit:4;stroke-dasharray:none;stroke-opacity:1"
         d="m 15.419,59.215 16.287,0 0,-46.537 25.996,0 0,-11.393 -42.283,0 0,57.93" /></g><g
       clip-path="url(#clipPath3081)"
       id="g3079"
       style="fill:none;stroke-width:0.28346457000000003;stroke-miterlimit:4;stroke-dasharray:none;stroke:#000000;stroke-opacity:1"><g
         clip-path="url(#clipPath3087)"
         id="g3085"
         style="fill:none;stroke-width:0.28346457000000003;stroke-miterlimit:4;stroke-dasharray:none;stroke:#000000;stroke-opacity:1"><path
           inkscape:connector-curvature="0"
           id="path3091"
           style="fill:none;fill-opacity:1;fill-rule:nonzero;stroke:#000000;stroke-width:0.28346457000000003;stroke-miterlimit:4;stroke-dasharray:none;stroke-opacity:1"
           d="m 153.103,59.215 16.528,0 0,-57.93 -16.528,0 0,57.93 z" /><path
           inkscape:connector-curvature="0"
           id="path3093"
           style="fill:none;fill-opacity:1;fill-rule:nonzero;stroke:#000000;stroke-width:0.28346457000000003;stroke-miterlimit:4;stroke-dasharray:none;stroke-opacity:1"
           d="m 307.572,41.883 c -0.884,6.017 -5.617,7.702 -10.031,7.702 -10.991,0 -15.003,-9.628 -15.003,-19.337 0,-13.559 7.462,-19.255 17.17,-19.255 2.969,0 5.938,0.401 8.906,0.963 l 0,11.232 -12.276,0 0,10.993 27.36,0 0,-30.971 C 315.273,1.203 306.688,0 298.104,0 c -6.259,0 -14.924,0.963 -21.665,6.018 -7.381,5.535 -10.751,14.685 -10.751,23.911 0,6.981 2.086,16.689 8.666,23.028 6.9,6.498 17.009,7.702 23.991,7.702 9.066,0 16.527,-1.925 21.181,-6.74 4.172,-4.413 4.253,-9.226 4.333,-12.036 l -16.287,0" /></g></g><g
       clip-path="url(#clipPath3099)"
       id="g3097"
       style="fill:none;stroke-width:0.28346457000000003;stroke-miterlimit:4;stroke-dasharray:none;stroke:#000000;stroke-opacity:1"><path
         inkscape:connector-curvature="0"
         id="path3103"
         style="fill:none;fill-opacity:1;fill-rule:nonzero;stroke:#000000;stroke-width:0.28346457000000003;stroke-miterlimit:4;stroke-dasharray:none;stroke-opacity:1"
         d="m 232.923,294.307 48.606,-49.879 -39.998,-58.963 -60.717,32.509 52.109,76.333" /><path
         inkscape:connector-curvature="0"
         id="path3105"
         style="fill:none;fill-opacity:1;fill-rule:nonzero;stroke:#000000;stroke-width:0.28346457000000003;stroke-miterlimit:4;stroke-dasharray:none;stroke-opacity:1"
         d="m 256.544,164.712 14.719,15.616 58.045,4.088 17.305,-13.521 -90.069,-6.183" /><path
         inkscape:connector-curvature="0"
         id="path3107"
         style="fill:none;fill-opacity:1;fill-rule:nonzero;stroke:#000000;stroke-width:0.28346457000000003;stroke-miterlimit:4;stroke-dasharray:none;stroke-opacity:1"
         d="m 223.674,122.443 50.675,21.777 71.232,-8.554 -41.483,-30.263 -80.424,17.04" /><path
         inkscape:connector-curvature="0"
         id="path3109"
         style="fill:none;fill-opacity:1;fill-rule:nonzero;stroke:#000000;stroke-width:0.28346457000000003;stroke-miterlimit:4;stroke-dasharray:none;stroke-opacity:1"
         d="m 100.748,169.259 -10.955,64.415 -6.809,-2.2 4.154,39.505 90.766,-4.005 -12.97,-93.799 -64.186,-3.916" /><path
         inkscape:connector-curvature="0"
         id="path3111"
         style="fill:none;fill-opacity:1;fill-rule:nonzero;stroke:#000000;stroke-width:0.28346457000000003;stroke-miterlimit:4;stroke-dasharray:none;stroke-opacity:1"
         d="m 76.284,167.767 6.7,63.707 6.809,2.2 10.955,-64.415 -24.464,-1.492" /><path
         inkscape:connector-curvature="0"
         id="path3113"
         style="fill:none;fill-opacity:1;fill-rule:nonzero;stroke:#000000;stroke-width:0.28346457000000003;stroke-miterlimit:4;stroke-dasharray:none;stroke-opacity:1"
         d="m 225.719,118.346 -31.683,-9.96 43.104,-11.532 28.227,8.989 -39.648,12.503" /></g></g></svg>