<?xml version="1.0" encoding="UTF-8" standalone="no"?>
<!-- Generator: Adobe Illustrator 16.0.0, SVG Export Plug-In . SVG Version: 6.00 Build 0)  -->

<svg
   xmlns:osb="http://www.openswatchbook.org/uri/2009/osb"
   xmlns:dc="http://purl.org/dc/elements/1.1/"
   xmlns:cc="http://creativecommons.org/ns#"
   xmlns:rdf="http://www.w3.org/1999/02/22-rdf-syntax-ns#"
   xmlns:svg="http://www.w3.org/2000/svg"
   xmlns="http://www.w3.org/2000/svg"
   xmlns:sodipodi="http://sodipodi.sourceforge.net/DTD/sodipodi-0.dtd"
   xmlns:inkscape="http://www.inkscape.org/namespaces/inkscape"
   version="1.1"
   id="Calque_2"
   x="0px"
   y="0px"
   width="841.89px"
   height="595.28px"
   viewBox="0 0 841.89 595.28"
   enable-background="new 0 0 841.89 595.28"
   xml:space="preserve"
   inkscape:version="0.48.2 r9819"
   sodipodi:docname="Logo P Polytech.svg"><metadata
   id="metadata9"><rdf:RDF><cc:Work
       rdf:about=""><dc:format>image/svg+xml</dc:format><dc:type
         rdf:resource="http://purl.org/dc/dcmitype/StillImage" /></cc:Work></rdf:RDF></metadata><defs
   id="defs7"><linearGradient
     id="linearGradient3819"
     osb:paint="solid"><stop
       style="stop-color:#000000;stop-opacity:1;"
       offset="0"
       id="stop3821" /></linearGradient></defs><sodipodi:namedview
   pagecolor="#ffffff"
   bordercolor="#666666"
   borderopacity="1"
   objecttolerance="10"
   gridtolerance="10"
   guidetolerance="10"
   inkscape:pageopacity="0"
   inkscape:pageshadow="2"
   inkscape:window-width="1280"
   inkscape:window-height="698"
   id="namedview5"
   showgrid="false"
   inkscape:zoom="4.7"
   inkscape:cx="537.18877"
   inkscape:cy="101.54142"
   inkscape:window-x="0"
   inkscape:window-y="0"
   inkscape:window-maximized="1"
   inkscape:current-layer="Calque_2" />
<path
   fill-rule="evenodd"
   clip-rule="evenodd"
   fill="#179BD8"
   d="M404.327,31.403c-90.408,0-165.808,64.23-183.07,149.547h75.301  c15.458-44.054,57.408-75.646,106.744-75.646c62.464,0,113.102,50.637,113.102,113.102c0,62.464-50.638,113.102-113.102,113.102  c-49.401,0-91.397-31.676-106.805-75.821H290h-68.694c0,0,0,13.813,0,93.671S290,425.997,290,425.997V365.9  c31.596,24.492,71.255,39.078,114.327,39.078c103.161,0,186.787-83.628,186.787-186.788  C591.114,115.03,507.488,31.403,404.327,31.403z"
   id="path3" />
<path
   inkscape:connector-curvature="0"
   id="path3795"
   style="font-size:62.63347243999999847px;font-style:normal;font-variant:normal;font-weight:bold;font-stretch:normal;text-align:start;line-height:125%;letter-spacing:0px;word-spacing:0px;writing-mode:lr-tb;text-anchor:start;fill:none;fill-opacity:1;stroke:#000000;font-family:Arial;-inkscape-font-specification:Arial Bold;stroke-opacity:1;fill-rule:evenodd"
   d="m 243.95863,475.70496 0,-7.29002 20.21818,0 0,17.23632 c -1.96483,1.77086 -4.81692,3.33512 -8.55629,4.69277 -3.71832,1.33798 -7.48941,2.00697 -11.3133,2.00697 -4.85914,0 -9.09502,-0.94446 -12.70766,-2.83338 -3.61266,-1.90858 -6.32743,-4.62389 -8.14431,-8.14593 -1.81689,-3.54169 -2.72534,-7.38838 -2.72533,-11.54007 -1e-5,-4.50582 1.01407,-8.50992 3.04223,-12.0123 2.02815,-3.50233 4.99643,-6.18812 8.90486,-8.05739 2.97884,-1.43633 6.68656,-2.15451 11.12317,-2.15454 5.76754,3e-5 10.2675,1.13142 13.49991,3.39413 3.25346,2.24312 5.34499,5.35195 6.2746,9.3265 l -9.31683,1.62329 c -0.65496,-2.12499 -1.89087,-3.79746 -3.70773,-5.01742 -1.79579,-1.23956 -4.04577,-1.85936 -6.74995,-1.8594 -4.09858,4e-5 -7.36264,1.21012 -9.79218,3.63025 -2.40845,2.4202 -3.61267,6.0111 -3.61266,10.7727 -1e-5,5.1355 1.22533,8.99203 3.67603,11.56959 2.45067,2.55792 5.66191,3.83687 9.63374,3.83686 1.96474,10e-6 3.92952,-0.35417 5.89433,-1.06252 1.98587,-0.728 3.68656,-1.60359 5.10207,-2.62676 l 0,-5.48965 -10.74288,0" /><path
   inkscape:connector-curvature="0"
   id="path3797"
   style="font-size:62.63347243999999847px;font-style:normal;font-variant:normal;font-weight:bold;font-stretch:normal;text-align:start;line-height:125%;letter-spacing:0px;word-spacing:0px;writing-mode:lr-tb;text-anchor:start;fill:none;fill-opacity:1;stroke:#000000;font-family:Arial;-inkscape-font-specification:Arial Bold;stroke-opacity:1;fill-rule:evenodd"
   d="m 272.82816,491.61314 0,-43.2679 19.74282,0 c 4.96472,4e-5 8.5668,0.39357 10.80626,1.18057 2.26051,0.76741 4.06683,2.14474 5.41898,4.13199 1.35206,1.98734 2.02811,4.25993 2.02815,6.8178 -4e-5,3.2466 -1.02468,5.93239 -3.07392,8.05739 -2.04932,2.10537 -5.11267,3.43351 -9.19008,3.98443 2.02812,1.10188 3.69712,2.31196 5.007,3.63025 1.33094,1.31832 3.11615,3.65978 5.35561,7.02439 l 5.67249,8.44108 -11.21823,0 -6.78164,-9.41505 c -2.40847,-3.36461 -4.05634,-5.4798 -4.94363,-6.34556 -0.88734,-0.88542 -1.82748,-1.48553 -2.82041,-1.80037 -0.99296,-0.33448 -2.5669,-0.50173 -4.7218,-0.50175 l -1.90139,0 0,18.06273 -9.38021,0 m 9.38021,-24.96906 6.94009,0 c 4.49995,3e-5 7.30979,-0.17706 8.42952,-0.53126 1.11968,-0.35414 1.99644,-0.96411 2.63026,-1.82988 0.63377,-0.86572 0.95067,-1.94791 0.9507,-3.24657 -3e-5,-1.45601 -0.42256,-2.62673 -1.2676,-3.5122 -0.82397,-0.90506 -1.99649,-1.47567 -3.51757,-1.71183 -0.76059,-0.0983 -3.04226,-0.14752 -6.84503,-0.14756 l -7.32037,0 0,10.9793" /><path
   inkscape:connector-curvature="0"
   id="path3799"
   style="font-size:62.63347243999999847px;font-style:normal;font-variant:normal;font-weight:bold;font-stretch:normal;text-align:start;line-height:125%;letter-spacing:0px;word-spacing:0px;writing-mode:lr-tb;text-anchor:start;fill:none;fill-opacity:1;stroke:#000000;font-family:Arial;-inkscape-font-specification:Arial Bold;stroke-opacity:1;fill-rule:evenodd"
   d="m 319.69756,491.61314 0,-43.2679 34.44695,0 0,7.31954 -25.06674,0 0,9.59213 23.32378,0 0,7.29002 -23.32378,0 0,11.77619 25.95405,0 0,7.29002 -35.33426,0" /><path
   inkscape:connector-curvature="0"
   id="path3801"
   style="font-size:62.63347243999999847px;font-style:normal;font-variant:normal;font-weight:bold;font-stretch:normal;text-align:start;line-height:125%;letter-spacing:0px;word-spacing:0px;writing-mode:lr-tb;text-anchor:start;fill:none;fill-opacity:1;stroke:#000000;font-family:Arial;-inkscape-font-specification:Arial Bold;stroke-opacity:1;fill-rule:evenodd"
   d="m 363.14444,491.61314 0,-43.2679 9.1267,0 19.01396,28.89446 0,-28.89446 8.71473,0 0,43.2679 -9.41191,0 -18.72875,-28.21563 0,28.21563 -8.71473,0" /><path
   inkscape:connector-curvature="0"
   id="path3803"
   style="font-size:62.63347243999999847px;font-style:normal;font-variant:normal;font-weight:bold;font-stretch:normal;text-align:start;line-height:125%;letter-spacing:0px;word-spacing:0px;writing-mode:lr-tb;text-anchor:start;fill:none;fill-opacity:1;stroke:#000000;font-family:Arial;-inkscape-font-specification:Arial Bold;stroke-opacity:1;fill-rule:evenodd"
   d="m 408.04906,470.24482 c 0,-4.40744 0.70774,-8.10656 2.12323,-11.09737 1.05633,-2.20369 2.49293,-4.18115 4.30983,-5.93236 1.838,-1.75114 3.84502,-3.04976 6.02108,-3.89588 2.89433,-1.14117 6.23233,-1.71179 10.01402,-1.71182 6.84499,3e-5 12.31678,1.97749 16.41539,5.93236 4.11964,3.95494 6.17948,9.45442 6.17952,16.49847 -4e-5,6.98505 -2.03876,12.45503 -6.11615,16.40993 -4.07748,3.93523 -9.52813,5.90285 -16.352,5.90285 -6.90842,0 -12.40134,-1.95778 -16.47876,-5.87334 -4.07744,-3.93523 -6.11616,-9.34616 -6.11616,-16.23284 m 9.66543,-0.29514 c -1e-5,4.89938 1.21477,8.61818 3.64434,11.15639 2.42955,2.51855 5.51402,3.77783 9.25346,3.77782 3.73939,10e-6 6.80274,-1.24943 9.19008,-3.74831 2.40839,-2.51854 3.61261,-6.28652 3.61265,-11.30396 -4e-5,-4.95837 -1.17257,-8.65749 -3.51758,-11.09737 -2.32396,-2.4398 -5.41901,-3.65972 -9.28515,-3.65976 -3.8662,4e-5 -6.98237,1.23963 -9.34853,3.7188 -2.3662,2.45954 -3.54928,6.17834 -3.54927,11.15639" /><path
   inkscape:connector-curvature="0"
   id="path3805"
   style="font-size:62.63347243999999847px;font-style:normal;font-variant:normal;font-weight:bold;font-stretch:normal;text-align:start;line-height:125%;letter-spacing:0px;word-spacing:0px;writing-mode:lr-tb;text-anchor:start;fill:none;fill-opacity:1;stroke:#000000;font-family:Arial;-inkscape-font-specification:Arial Bold;stroke-opacity:1;fill-rule:evenodd"
   d="m 460.4325,448.34524 18.5703,0 c 3.676,4e-5 6.41189,0.14761 8.20768,0.44272 1.81686,0.2755 3.43305,0.86578 4.84856,1.77085 1.43657,0.90514 2.63023,2.11523 3.58096,3.63025 0.95067,1.49542 1.42601,3.17774 1.42606,5.04694 -5e-5,2.02668 -0.59159,3.88607 -1.77465,5.57819 -1.16199,1.69218 -2.74649,2.96129 -4.75348,3.80735 2.83092,0.76739 5.00697,2.07585 6.52813,3.92539 1.52107,1.84958 2.28162,4.02379 2.28167,6.52265 -5e-5,1.96763 -0.49653,3.88606 -1.48942,5.75528 -0.97187,1.84957 -2.31341,3.33512 -4.02463,4.45665 -1.69017,1.10187 -3.7817,1.7807 -6.27461,2.03649 -1.5634,0.15741 -5.33449,0.25579 -11.3133,0.29514 l -15.81327,0 0,-43.2679 m 9.38021,7.20148 0,10.00533 6.14786,0 c 3.65487,3e-5 5.92599,-0.0491 6.81333,-0.14757 1.6056,-0.17706 2.86262,-0.68864 3.77109,-1.53474 0.92955,-0.86572 1.39433,-1.9971 1.39437,-3.39414 -4e-5,-1.33795 -0.40145,-2.42013 -1.20422,-3.24657 -0.78171,-0.84604 -1.95424,-1.35762 -3.51758,-1.53474 -0.9296,-0.0983 -3.60212,-0.14754 -8.01756,-0.14757 l -5.38729,0 m 0,17.20681 0,11.56959 8.68305,0 c 3.38023,10e-6 5.52458,-0.0885 6.43305,-0.26563 1.39433,-0.23611 2.5246,-0.80672 3.39083,-1.71183 0.88727,-0.92476 1.33094,-2.15452 1.33097,-3.68928 -3e-5,-1.29862 -0.33805,-2.40048 -1.01407,-3.3056 -0.67609,-0.90508 -1.65848,-1.56424 -2.94717,-1.97745 -1.26763,-0.41318 -4.03521,-0.61978 -8.30276,-0.6198 l -7.5739,0" /><path
   inkscape:connector-curvature="0"
   id="path3807"
   style="font-size:62.63347243999999847px;font-style:normal;font-variant:normal;font-weight:bold;font-stretch:normal;text-align:start;line-height:125%;letter-spacing:0px;word-spacing:0px;writing-mode:lr-tb;text-anchor:start;fill:none;fill-opacity:1;stroke:#000000;font-family:Arial;-inkscape-font-specification:Arial Bold;stroke-opacity:1;fill-rule:evenodd"
   d="m 507.55543,491.61314 0,-42.91373 9.38021,0 0,35.62371 23.3238,0 0,7.29002 -32.70401,0" /><path
   inkscape:connector-curvature="0"
   id="path3809"
   style="font-size:62.63347243999999847px;font-style:normal;font-variant:normal;font-weight:bold;font-stretch:normal;text-align:start;line-height:125%;letter-spacing:0px;word-spacing:0px;writing-mode:lr-tb;text-anchor:start;fill:none;fill-opacity:1;stroke:#000000;font-family:Arial;-inkscape-font-specification:Arial Bold;stroke-opacity:1;fill-rule:evenodd"
   d="m 546.97771,491.61314 0,-43.2679 34.44695,0 0,7.31954 -25.06674,0 0,9.59213 23.32379,0 0,7.29002 -23.32379,0 0,11.77619 25.95406,0 0,7.29002 -35.33427,0" /></svg>